<svg xmlns="http://www.w3.org/2000/svg" viewBox="0 0 64 64" fill="none">
  <path d="M8 38h48v6a2 2 0 01-2 2H10a2 2 0 01-2-2v-6z" fill="currentColor" opacity="0.2"/>
  <path d="M12 38l4-12h32l4 12" stroke="currentColor" stroke-width="2" stroke-linecap="round" stroke-linejoin="round"/>
  <path d="M8 38h48v6a2 2 0 01-2 2H10a2 2 0 01-2-2v-6z" stroke="currentColor" stroke-width="2" stroke-linecap="round" stroke-linejoin="round"/>
  <path d="M20 26h8l2 12H18l2-12zM36 26h8l2 12H34l2-12z" stroke="currentColor" stroke-width="1.5" stroke-linecap="round" stroke-linejoin="round" opacity="0.6"/>
  <circle cx="16" cy="44" r="4" fill="currentColor"/>
  <circle cx="48" cy="44" r="4" fill="currentColor"/>
</svg>
