<svg xmlns="http://www.w3.org/2000/svg" viewBox="0 0 64 64" fill="none">
  <path d="M8 32h48v12a2 2 0 01-2 2H10a2 2 0 01-2-2V32z" fill="currentColor" opacity="0.2"/>
  <path d="M8 32V22a2 2 0 012-2h32l10 12" stroke="currentColor" stroke-width="2" stroke-linecap="round" stroke-linejoin="round"/>
  <path d="M8 32h48v12a2 2 0 01-2 2H10a2 2 0 01-2-2V32z" stroke="currentColor" stroke-width="2" stroke-linecap="round" stroke-linejoin="round"/>
  <path d="M14 20h12v12H14zM30 20h8v12h-8z" stroke="currentColor" stroke-width="1.5" stroke-linecap="round" stroke-linejoin="round" opacity="0.6"/>
  <circle cx="16" cy="46" r="4" fill="currentColor"/>
  <circle cx="48" cy="46" r="4" fill="currentColor"/>
</svg>
